<?xml version="1.0" encoding="UTF-8"?><svg id="b" xmlns="http://www.w3.org/2000/svg" viewBox="0 0 998.16 107.94"><g id="c"><path d="M286.6,62.76c-21.05,49.14-113.56,45.12-155.54,45.08-26.86-.02-144.49,3.89-129.8-50.13.82-3,1.24-4.49,2.06-7.49C18.8-3.72,118.9-.05,160.71.11c25.95.1,137.42-4.4,130.73,45.08h-84c-10.75-15.01-40.2-12.35-55.7-12.46-17.31-.12-60.43-2.72-66.98,20.02-.28,1.01-.42,1.51-.69,2.52-6.3,22.33,44.98,20.02,55.96,20.02,19.04,0,47.34,1.52,62.58-12.53h84Z"/><path d="M390.91,70.25c-3.22,11.69-6.43,23.38-9.65,35.07h-81.97L327.55,2.63h81.97c-3.22,11.69-6.43,23.38-9.65,35.07h123.11c3.22-11.69,6.43-23.38,9.65-35.07h82.13c-9.42,34.23-18.84,68.47-28.26,102.7h-82.13c3.22-11.69,6.43-23.38,9.65-35.07h-123.11Z"/><path d="M998.16,39l-8.26,30.03h-230.72c2.75-10.01,5.51-20.02,8.26-30.03h230.72Z"/></g></svg>