<?xml version="1.0" encoding="UTF-8"?><svg id="b" xmlns="http://www.w3.org/2000/svg" viewBox="0 0 998.24 107.96"><g id="c"><path d="M282.25,62.75c-20.67,48.55-111.54,45.33-153.36,45.08-27.12-.16-142.25,3.68-127.61-50.13.82-3,1.24-4.49,2.06-7.49C18.7-3.4,116.86-.07,158.54.09c25.95.1,135.36-4.19,128.55,45.08h-82.72c-10.44-14.95-39.54-12.33-54.8-12.46-18.13-.14-58.72-2.41-66.05,20.02-.28,1.01-.42,1.51-.69,2.52-6.34,22.24,44.08,20.11,55.03,20.02,18.64-.16,46.53,1.38,61.68-12.53h82.72Z"/><path d="M384.94,70.24c-3.22,11.69-6.43,23.38-9.65,35.07h-80.72c9.42-34.23,18.84-68.47,28.26-102.7h80.72c-3.22,11.69-6.43,23.38-9.65,35.07h121.24c3.22-11.69,6.43-23.38,9.65-35.07h80.88c-9.42,34.23-18.84,68.47-28.26,102.7h-80.88c3.22-11.69,6.43-23.38,9.65-35.07h-121.24Z"/><path d="M922.1,3.68c-3.22,11.69-6.43,23.38-9.65,35.07h85.8c-2.75,10.01-5.51,20.02-8.26,30.03h-85.8c-3.22,11.69-6.43,23.38-9.65,35.07h-70.7c3.22-11.69,6.43-23.38,9.65-35.07h-85.8l8.26-30.03h85.8c3.22-11.69,6.43-23.38,9.65-35.07h70.7Z"/></g></svg>