<?xml version="1.0" encoding="UTF-8"?><svg id="b" xmlns="http://www.w3.org/2000/svg" viewBox="0 0 107.74 999.95"><g id="c"><path d="M45.08,151.7C8.69,138.99,0,98.32,0,64.1,0,33.97,9.35-11.01,50.13,2.45c3,.82,4.49,1.24,7.49,2.06,39.96,10.63,49.87,53.08,50.13,89.23.2,27.81-7.1,71.1-45.08,62.79v-44.13c12.08-2.14,12.62-18.37,12.46-27.64-.25-13.78-2.97-34.54-20.02-37.81-1.01-.28-1.51-.42-2.52-.69-17.02-5.16-20.29,14.6-20.02,26.79.27,12.25,1.7,26.53,12.53,34.51v44.13Z"/><path d="M105.22,224.14l-70.15-19.3v86.21l-32.55-8.96v-129.28l102.7,28.26v43.07Z"/><path d="M105.22,367.97L2.52,339.71v-43.07l102.7,28.26v43.07Z"/><path d="M45.08,514.73C8.69,502.02,0,461.34,0,427.12c0-30.13,9.34-75.13,50.13-61.66,3,.82,4.49,1.24,7.49,2.06,39.96,10.63,49.87,53.09,50.13,89.24.2,27.81-7.09,71.11-45.08,62.8v-44.14c12.08-2.14,12.62-18.37,12.46-27.64-.25-13.78-2.97-34.54-20.02-37.81-1.01-.28-1.51-.42-2.52-.69-17.02-5.17-20.29,14.6-20.02,26.79.27,12.25,1.7,26.53,12.53,34.52v44.14Z"/><path d="M37.59,568.56c-11.69-3.22-23.38-6.43-35.07-9.65v-43.07c34.23,9.42,68.47,18.84,102.7,28.26v43.07c-11.69-3.22-23.38-6.43-35.07-9.65v18.82c11.69,16.72,23.38,33.45,35.07,50.17v56.55c-17.12-23.81-34.23-47.61-51.35-71.42-17.12,14.39-34.23,28.77-51.35,43.16v-56.55c11.69-10.29,23.38-20.58,35.07-30.87v-18.82Z"/><path d="M105.07,709.01v129.28c-10.51-2.89-15.77-4.34-26.29-7.23v-86.21c-5.26-1.45-7.89-2.17-13.14-3.62v86.21c-9.51-2.62-14.26-3.92-23.77-6.54v-86.21c-5.26-1.45-7.89-2.17-13.14-3.62v86.21c-10.55-2.9-15.82-4.35-26.36-7.25v-129.28c34.23,9.42,68.47,18.84,102.7,28.26Z"/><path d="M105.14,967.59c.44,21.25-17.89,37.11-38.82,31.07-7.59-2.19-14.75-6.29-21.01-12.44-6.18-6.06-10.93-13.2-14.06-21.29-9.6,5.38-19.2,10.77-28.81,16.15v-45.86c8.35-4.63,16.71-9.26,25.06-13.9v-38.46c-10.03-2.76-15.04-4.14-25.06-6.9v-43.06c34.23,9.42,68.47,18.84,102.7,28.26v106.43ZM75.11,895.96c-7-1.93-10.5-2.89-17.5-4.82v52.51c0,2.63.84,5.08,2.52,7.35,1.76,2.37,3.82,3.85,6.19,4.5,4.89,1.35,8.79-1.77,8.79-7.03v-52.51Z"/></g></svg>