<?xml version="1.0" encoding="UTF-8"?><svg id="b" xmlns="http://www.w3.org/2000/svg" viewBox="0 0 263.51 84.08"><g id="c"><path d="m263.51,0H111.33l-7.9,28.72c-17.65,0-35.3,0-52.95,0C53.12,19.14,55.75,9.57,58.39,0H23.14L0,84.08c11.75,0,23.5,0,35.25,0,2.63-9.57,5.27-19.14,7.9-28.72h52.95c-2.63,9.57-5.27,19.14-7.9,28.72h152.18c2.94-10.69,4.41-16.03,7.35-26.72h-61.69c23.38-10.24,46.76-20.48,70.14-30.72C259.11,15.98,260.58,10.66,263.51,0Zm-132.64,57.36c2.82-10.24,5.63-20.48,8.45-30.72h59.54c-22.66,10.24-45.33,20.48-67.99,30.72Z"/></g></svg>